<svg xmlns="http://www.w3.org/2000/svg" width="460" height="237"><defs><filter id="a"><feFlood flood-color="#FFF" flood-opacity="1" result="floodOut"/><feComposite in="floodOut" in2="SourceGraphic" operator="atop" result="compOut"/><feBlend in="compOut" in2="SourceGraphic"/></filter></defs><g fill="#FFF" fill-rule="evenodd" filter="url(#a)"><path d="M459.495 232.246q.49 1.042.491 2.029 0 1.098-.86 1.905t-2.334.807q-1.386 0-2.257-.594a5.1 5.1 0 0 1-1.474-1.58 92 92 0 0 1-1.072-1.794l-7.842-12.105-5.429 5.223v6.793q0 2.063-.938 3.06t-2.413.997a3.23 3.23 0 0 1-1.63-.448 3.13 3.13 0 0 1-1.207-1.211q-.313-.627-.38-1.457-.067-.828-.067-2.398v-24.435q0-2.017.883-3.027.882-1.008 2.401-1.008 1.497 0 2.424.997.927.998.927 3.038v11.522l13.025-13.629q.938-.987 1.597-1.458.659-.47 1.754-.47 1.43 0 2.312.84.882.841.882 2.051 0 1.458-1.496 2.892l-8.065 7.667 9.293 13.361q.984 1.39 1.475 2.432m-38.202-3.968q1.262 2.074 1.966 3.744t.704 2.298q0 .65-.414 1.289a2.9 2.9 0 0 1-1.128 1.008q-.715.37-1.653.37-1.117 0-1.877-.527a5 5 0 0 1-1.306-1.333 51 51 0 0 1-1.486-2.377l-2.659-4.438q-1.43-2.444-2.558-3.722-1.128-1.277-2.289-1.748-1.163-.471-2.927-.471h-2.323v10.559q0 2.084-.916 3.071-.917.986-2.391.986-1.586 0-2.457-1.031t-.871-3.026v-25.287q0-2.152.96-3.116t3.106-.964h10.79q2.233 0 3.82.191 1.586.19 2.86.773a8.3 8.3 0 0 1 2.725 1.861 8.2 8.2 0 0 1 1.799 2.813 9.4 9.4 0 0 1 .614 3.396q0 3.677-2.067 5.874-2.066 2.196-6.266 3.116 1.764.941 3.373 2.779a28 28 0 0 1 2.871 3.912m-5.496-12.509q.86-.997.86-2.746 0-1.367-.692-2.41-.693-1.042-1.921-1.558-1.162-.493-4.58-.493h-6.121v9.034h5.942q2.39 0 4.021-.414 1.631-.415 2.491-1.413m-31.209 16.511q-2.055 2.286-5.049 3.497t-6.858 1.21q-3.843 0-6.881-1.244t-5.071-3.508-3.072-5.448q-1.04-3.183-1.039-6.882 0-3.788 1.084-6.949 1.083-3.161 3.138-5.38 2.055-2.22 5.005-3.396 2.948-1.177 6.702-1.177 5.093 0 8.746 2.073t5.529 5.896q1.877 3.822 1.877 8.978 0 3.812-1.028 6.927t-3.083 5.403m-3.775-18.629q-1.162-2.644-3.318-4.002-2.156-1.356-4.948-1.356-1.989 0-3.675.751a8.1 8.1 0 0 0-2.905 2.186q-1.218 1.434-1.921 3.665t-.704 5.01q0 2.803.704 5.067t1.988 3.754q1.285 1.492 2.949 2.231 1.665.74 3.653.74 2.547 0 4.68-1.278t3.396-3.945q1.262-2.668 1.262-6.569 0-3.61-1.161-6.254m-35.957 17.44q-.559 2.243-.927 3.285a4.4 4.4 0 0 1-1.251 1.827q-.883.784-2.491.784-1.52 0-2.435-.762-.917-.762-1.274-1.715-.357-.952-1.005-3.262l-5.295-19.704-5.361 19.704q-.626 2.242-.994 3.217-.369.975-1.285 1.749-.916.773-2.435.773-1.228 0-2.022-.459a3.5 3.5 0 0 1-1.284-1.301q-.492-.84-.805-1.995-.313-1.154-.558-2.141l-5.451-22.125q-.492-1.929-.492-2.937 0-1.278.894-2.152.893-.874 2.212-.874 1.81 0 2.435 1.165.625 1.167 1.094 3.385l4.29 19.19 4.803-17.957q.536-2.062.96-3.138.424-1.075 1.386-1.861.96-.784 2.613-.784 1.676 0 2.603.818.927.819 1.285 1.782.357.965.96 3.183l4.848 17.957 4.289-19.19q.313-1.501.592-2.353a3.8 3.8 0 0 1 .961-1.525q.681-.672 1.977-.672 1.295 0 2.201.863.904.862.904 2.163 0 .92-.491 2.937zm-39.755 5.336h-16.017q-2.167 0-3.117-.964t-.949-3.116v-25.309q0-2.017.904-3.027.906-1.008 2.38-1.008 1.496 0 2.424.997.926.998.927 3.038v23.919h13.448q1.61 0 2.469.785.86.784.86 1.972 0 1.21-.849 1.962-.85.751-2.48.751m-30.438.56q-.783 0-1.34-.28a2.75 2.75 0 0 1-.939-.762q-.38-.482-.815-1.48a87 87 0 0 1-.749-1.759l-1.563-4.125h-13.315l-1.564 4.214q-.916 2.466-1.564 3.329t-2.122.863q-1.251 0-2.212-.919-.96-.919-.961-2.085 0-.672.224-1.39.223-.717.737-1.995l8.378-21.341.86-2.208q.502-1.289 1.072-2.141a4.4 4.4 0 0 1 1.497-1.379q.927-.526 2.29-.526 1.385 0 2.312.526a4.5 4.5 0 0 1 1.497 1.357q.57.83.96 1.782.392.952.995 2.544l8.556 21.207q1.005 2.421 1.005 3.519 0 1.144-.949 2.096a3.11 3.11 0 0 1-2.29.953m-12.131-26.968-4.848 13.563h9.785zm-25.814 26.968q-1.43 0-2.357-1.02t-.927-3.037v-25.892q0-2.017.916-3.027.916-1.008 2.368-1.008 1.497 0 2.424.997.927.998.927 3.038v25.892q0 2.04-.927 3.048-.927 1.01-2.424 1.009m-30.26-6.546q1.967 1.256 4.602 1.256 2.86 0 4.837-1.424t2.982-4.181q.424-1.299 1.05-2.118.625-.818 2.011-.818 1.184 0 2.033.829.849.83.849 2.063 0 1.569-.771 3.396t-2.424 3.587-4.222 2.858-5.987 1.098q-2.592 0-4.714-.493-2.123-.494-3.854-1.536-1.731-1.041-3.183-2.746a16.3 16.3 0 0 1-2.212-3.463 18 18 0 0 1-1.374-4.091 22.4 22.4 0 0 1-.458-4.618q0-3.968 1.151-7.107 1.15-3.138 3.295-5.368a14.4 14.4 0 0 1 5.026-3.397q2.882-1.165 6.144-1.165 3.977 0 7.082 1.591 3.105 1.593 4.758 3.934 1.654 2.343 1.654 4.428 0 1.144-.805 2.017-.804.875-1.943.875-1.274 0-1.91-.606-.637-.605-1.419-2.084-1.296-2.443-3.049-3.654-1.755-1.21-4.323-1.211-4.09 0-6.512 3.116-2.425 3.117-2.424 8.855 0 3.834 1.072 6.378t3.038 3.799m-21.703 1.839q-2.057 2.286-5.049 3.497-2.994 1.21-6.859 1.21-3.842 0-6.88-1.244-3.04-1.244-5.072-3.508t-3.071-5.448q-1.04-3.183-1.039-6.882 0-3.788 1.083-6.949 1.084-3.161 3.139-5.38 2.055-2.22 5.004-3.396 2.949-1.177 6.702-1.177 5.094 0 8.747 2.073t5.529 5.896q1.876 3.822 1.876 8.978 0 3.812-1.027 6.927-1.029 3.115-3.083 5.403m-3.776-18.629q-1.161-2.644-3.317-4.002-2.156-1.356-4.949-1.356-1.988 0-3.675.751a8.1 8.1 0 0 0-2.904 2.186q-1.218 1.434-1.921 3.665t-.704 5.01q0 2.803.704 5.067t1.988 3.754q1.284 1.492 2.949 2.231 1.664.74 3.653.74 2.547 0 4.68-1.278t3.396-3.945 1.262-6.569q0-3.61-1.162-6.254m-36.694 21.991q-2.95 1.345-6.992 1.345-4.848 0-7.998-1.838a10.7 10.7 0 0 1-3.63-3.531q-1.396-2.208-1.396-4.293 0-1.21.837-2.073.838-.863 2.134-.863 1.05 0 1.776.672.726.674 1.24 1.995.624 1.57 1.351 2.623.726 1.054 2.044 1.738t3.463.683q2.949 0 4.792-1.378 1.843-1.38 1.843-3.441 0-1.637-.994-2.657t-2.569-1.558q-1.575-.539-4.211-1.143-3.53-.83-5.909-1.939-2.38-1.11-3.776-3.027-1.396-1.916-1.396-4.763 0-2.712 1.474-4.82 1.475-2.107 4.267-3.239t6.569-1.132q3.015 0 5.216.751 2.2.75 3.653 1.995 1.452 1.244 2.122 2.611t.67 2.668q0 1.188-.838 2.141-.837.953-2.088.953-1.14 0-1.732-.572t-1.284-1.872q-.894-1.86-2.145-2.903t-4.021-1.042q-2.57 0-4.144 1.132t-1.575 2.723q0 .987.536 1.704.536.719 1.474 1.233a10 10 0 0 0 1.899.807q.96.292 3.172.852 2.77.65 5.016 1.435 2.245.784 3.82 1.905a7.84 7.84 0 0 1 2.457 2.836q.883 1.715.883 4.203 0 2.982-1.53 5.358t-4.48 3.721m-30.371 1.345q-1.386 0-2.256-.594a5.1 5.1 0 0 1-1.475-1.58 92 92 0 0 1-1.072-1.794l-7.842-12.105-5.428 5.223v6.793q0 2.063-.939 3.06-.937.996-2.412.997-.85 0-1.631-.448a3.13 3.13 0 0 1-1.207-1.211 4 4 0 0 1-.379-1.457q-.067-.828-.067-2.398v-24.435q0-2.017.882-3.027.882-1.008 2.402-1.008 1.496 0 2.423.997.927.998.928 3.038v11.522l13.024-13.629q.939-.987 1.597-1.458.659-.47 1.754-.47 1.43 0 2.312.84.882.841.883 2.051 0 1.458-1.497 2.892l-8.065 7.667 9.294 13.361q.982 1.39 1.474 2.432.491 1.042.492 2.029 0 1.098-.861 1.905-.86.807-2.334.807m-51.461-6.546q1.966 1.256 4.602 1.256 2.86 0 4.837-1.424t2.982-4.181q.424-1.299 1.05-2.118.625-.818 2.011-.818 1.184 0 2.033.829.849.83.849 2.063 0 1.569-.771 3.396t-2.424 3.587-4.222 2.858q-2.57 1.098-5.987 1.098-2.592 0-4.714-.493-2.123-.494-3.854-1.536-1.731-1.041-3.183-2.746a16.3 16.3 0 0 1-2.212-3.463 18 18 0 0 1-1.374-4.091 22.4 22.4 0 0 1-.458-4.618q0-3.968 1.151-7.107 1.15-3.138 3.295-5.368a14.4 14.4 0 0 1 5.026-3.397q2.882-1.165 6.144-1.165 3.977 0 7.082 1.591 3.105 1.593 4.758 3.934 1.653 2.343 1.653 4.428 0 1.144-.804 2.017-.804.875-1.943.875-1.274 0-1.91-.606-.637-.605-1.419-2.084-1.296-2.443-3.05-3.654t-4.322-1.211q-4.089 0-6.513 3.116t-2.423 8.855q0 3.834 1.072 6.378t3.038 3.799m-22.686 6.546q-1.43 0-2.357-1.02t-.927-3.037v-25.892q0-2.017.916-3.027.915-1.008 2.368-1.008 1.495 0 2.424.997.926.998.927 3.038v25.892q0 2.04-.927 3.048-.928 1.01-2.424 1.009m-15.046 0q-1.386 0-2.257-.594a5.1 5.1 0 0 1-1.474-1.58 98 98 0 0 1-1.073-1.794l-7.841-12.105-5.429 5.223v6.793q0 2.063-.938 3.06-.939.996-2.413.997a3.23 3.23 0 0 1-1.631-.448 3.13 3.13 0 0 1-1.206-1.211q-.313-.627-.38-1.457-.066-.828-.067-2.398v-24.435q0-2.017.883-3.027.882-1.008 2.401-1.008 1.497 0 2.424.997.927.998.927 3.038v11.522l13.025-13.629q.938-.987 1.597-1.458.659-.47 1.754-.47 1.429 0 2.312.84.882.841.882 2.051 0 1.458-1.496 2.892l-8.065 7.667 9.293 13.361q.983 1.39 1.475 2.432.49 1.042.491 2.029 0 1.098-.86 1.905t-2.334.807"/><path d="M270 160c-44.183 0-80-35.817-80-80s35.817-80 80-80 80 35.817 80 80-35.817 80-80 80m0-128c-26.51 0-48 21.49-48 48s21.49 48 48 48 48-21.49 48-48-21.49-48-48-48" opacity=".2"/><path d="M323.4 41.268c-5.68 6.769-15.772 7.652-22.542 1.972a17 17 0 0 1-1.142-1.061l-.07.085C291.482 35.842 281.193 32 270 32c-26.51 0-48 21.49-48 48s21.49 48 48 48c11.715 0 22.444-4.201 30.777-11.173l.01.012q.03-.03.062-.058c6.769-5.68 16.861-4.797 22.541 1.972s4.797 16.861-1.972 22.541c-.252.212-.518.396-.779.589l.022.027C306.864 153.213 289.226 160 270 160c-44.183 0-80-35.817-80-80s35.817-80 80-80c18.961 0 36.369 6.61 50.079 17.633l-.043.053c.476.319.942.663 1.392 1.04 6.769 5.68 7.652 15.772 1.972 22.542M143 0c8.837 0 16 7.163 16 16v128c0 8.837-7.163 16-16 16s-16-7.163-16-16V16c0-8.837 7.163-16 16-16M92.34 27.967 39.307 81l53.033 53.033c6.248 6.248 6.248 16.379 0 22.627-6.249 6.249-16.379 6.249-22.628 0L5.365 92.314c-6.248-6.249-6.248-16.379 0-22.628L69.712 5.34c6.249-6.249 16.379-6.249 22.628 0s6.248 16.379 0 22.627M367.66 27.967 420.693 81l-53.033 53.033c-6.248 6.248-6.248 16.379 0 22.627 6.249 6.249 16.379 6.249 22.628 0l64.347-64.346c6.248-6.249 6.248-16.379 0-22.628L390.288 5.34c-6.249-6.249-16.379-6.249-22.628 0s-6.248 16.379 0 22.627"/></g></svg>