<svg
        xmlns="http://www.w3.org/2000/svg"
        width="460px" height="237px">
    <defs>
        <filter id="Filter_0">
            <feFlood flood-color="rgb(24, 35, 45)" flood-opacity="1" result="floodOut"/>
            <feComposite operator="atop" in="floodOut" in2="SourceGraphic" result="compOut"/>
            <feBlend mode="normal" in="compOut" in2="SourceGraphic"/>
        </filter>
    </defs>
    <g filter="url(#Filter_0)">
        <path fill-rule="evenodd" fill="rgb(24, 35, 45)"
              d="M459.495,232.246 C459.822,232.941 459.986,233.617 459.986,234.275 C459.986,235.007 459.699,235.642 459.126,236.180 C458.553,236.718 457.775,236.987 456.792,236.987 C455.868,236.987 455.116,236.789 454.535,236.393 C453.954,235.997 453.463,235.471 453.061,234.813 C452.659,234.155 452.301,233.557 451.989,233.019 L444.147,220.914 L438.718,226.137 L438.718,232.930 C438.718,234.305 438.406,235.325 437.780,235.990 C437.155,236.654 436.350,236.987 435.367,236.987 C434.801,236.987 434.258,236.838 433.737,236.539 C433.215,236.240 432.813,235.837 432.530,235.328 C432.321,234.910 432.195,234.424 432.150,233.871 C432.106,233.319 432.083,232.519 432.083,231.473 L432.083,207.038 C432.083,205.693 432.377,204.684 432.966,204.011 C433.554,203.339 434.354,203.003 435.367,203.003 C436.365,203.003 437.173,203.335 437.791,204.000 C438.409,204.665 438.718,205.678 438.718,207.038 L438.718,218.560 L451.743,204.931 C452.368,204.273 452.901,203.787 453.340,203.473 C453.779,203.160 454.364,203.003 455.094,203.003 C456.047,203.003 456.818,203.283 457.406,203.843 C457.994,204.404 458.288,205.087 458.288,205.894 C458.288,206.866 457.789,207.830 456.792,208.786 L448.727,216.453 L458.020,229.814 C458.676,230.741 459.167,231.551 459.495,232.246 ZM421.293,228.278 C422.134,229.661 422.790,230.909 423.259,232.022 C423.728,233.135 423.963,233.901 423.963,234.320 C423.963,234.753 423.825,235.183 423.549,235.609 C423.274,236.034 422.898,236.371 422.421,236.617 C421.944,236.864 421.394,236.987 420.768,236.987 C420.023,236.987 419.398,236.811 418.891,236.460 C418.385,236.109 417.949,235.665 417.585,235.127 C417.219,234.589 416.724,233.797 416.099,232.750 L413.440,228.312 C412.487,226.683 411.634,225.442 410.882,224.590 C410.130,223.739 409.367,223.156 408.593,222.842 C407.818,222.528 406.842,222.371 405.666,222.371 L403.343,222.371 L403.343,232.930 C403.343,234.320 403.037,235.343 402.427,236.001 C401.816,236.658 401.019,236.987 400.036,236.987 C398.979,236.987 398.160,236.643 397.579,235.956 C396.998,235.269 396.708,234.260 396.708,232.930 L396.708,207.643 C396.708,206.208 397.028,205.170 397.668,204.527 C398.308,203.885 399.344,203.563 400.774,203.563 L411.564,203.563 C413.053,203.563 414.326,203.627 415.384,203.754 C416.441,203.881 417.395,204.139 418.244,204.527 C419.271,204.961 420.180,205.581 420.969,206.388 C421.758,207.195 422.358,208.133 422.768,209.201 C423.177,210.270 423.382,211.402 423.382,212.597 C423.382,215.048 422.693,217.006 421.315,218.471 C419.938,219.935 417.849,220.974 415.049,221.587 C416.225,222.214 417.350,223.141 418.422,224.366 C419.495,225.592 420.451,226.896 421.293,228.278 ZM415.797,215.769 C416.371,215.104 416.657,214.189 416.657,213.023 C416.657,212.112 416.426,211.308 415.965,210.613 C415.503,209.918 414.863,209.399 414.044,209.055 C413.269,208.727 411.743,208.562 409.464,208.562 L403.343,208.562 L403.343,217.596 L409.285,217.596 C410.879,217.596 412.219,217.458 413.306,217.182 C414.393,216.905 415.224,216.434 415.797,215.769 ZM384.588,232.280 C383.218,233.804 381.535,234.970 379.539,235.777 C377.543,236.584 375.257,236.987 372.681,236.987 C370.119,236.987 367.825,236.573 365.800,235.743 C363.774,234.914 362.084,233.744 360.729,232.235 C359.373,230.725 358.349,228.910 357.657,226.787 C356.964,224.665 356.618,222.371 356.618,219.905 C356.618,217.380 356.979,215.063 357.702,212.956 C358.424,210.849 359.470,209.055 360.840,207.576 C362.210,206.096 363.879,204.964 365.845,204.180 C367.810,203.395 370.045,203.003 372.547,203.003 C375.942,203.003 378.858,203.694 381.293,205.076 C383.728,206.459 385.571,208.424 386.822,210.972 C388.073,213.520 388.699,216.513 388.699,219.950 C388.699,222.491 388.356,224.800 387.671,226.877 C386.986,228.954 385.958,230.755 384.588,232.280 ZM380.813,213.651 C380.038,211.888 378.932,210.554 377.495,209.649 C376.058,208.745 374.408,208.293 372.547,208.293 C371.221,208.293 369.996,208.544 368.872,209.044 C367.747,209.545 366.779,210.274 365.967,211.230 C365.155,212.186 364.515,213.408 364.046,214.895 C363.577,216.382 363.342,218.052 363.342,219.905 C363.342,221.774 363.577,223.462 364.046,224.972 C364.515,226.481 365.178,227.733 366.034,228.726 C366.891,229.721 367.874,230.464 368.983,230.957 C370.093,231.450 371.310,231.697 372.636,231.697 C374.334,231.697 375.894,231.271 377.316,230.419 C378.738,229.567 379.870,228.252 380.712,226.474 C381.553,224.695 381.974,222.506 381.974,219.905 C381.974,217.499 381.587,215.414 380.813,213.651 ZM344.856,231.091 C344.483,232.586 344.175,233.681 343.929,234.376 C343.683,235.071 343.266,235.680 342.678,236.203 C342.089,236.726 341.259,236.987 340.187,236.987 C339.174,236.987 338.362,236.733 337.752,236.225 C337.141,235.717 336.716,235.146 336.478,234.510 C336.240,233.875 335.905,232.788 335.473,231.248 L330.178,211.544 L324.817,231.248 C324.400,232.743 324.068,233.815 323.823,234.465 C323.577,235.115 323.149,235.698 322.538,236.214 C321.927,236.729 321.116,236.987 320.103,236.987 C319.284,236.987 318.610,236.834 318.081,236.528 C317.552,236.222 317.124,235.788 316.797,235.227 C316.469,234.667 316.201,234.002 315.992,233.232 C315.784,232.463 315.597,231.749 315.434,231.091 L309.983,208.966 C309.655,207.680 309.491,206.701 309.491,206.029 C309.491,205.177 309.789,204.460 310.385,203.877 C310.980,203.294 311.718,203.003 312.597,203.003 C313.803,203.003 314.615,203.391 315.032,204.168 C315.448,204.946 315.814,206.074 316.126,207.553 L320.416,226.743 L325.219,208.786 C325.576,207.411 325.896,206.365 326.179,205.648 C326.462,204.931 326.924,204.311 327.565,203.787 C328.205,203.264 329.076,203.003 330.178,203.003 C331.295,203.003 332.163,203.276 332.781,203.821 C333.399,204.367 333.827,204.961 334.066,205.603 C334.304,206.246 334.624,207.307 335.026,208.786 L339.874,226.743 L344.163,207.553 C344.372,206.552 344.569,205.768 344.755,205.200 C344.941,204.632 345.262,204.124 345.716,203.675 C346.170,203.227 346.829,203.003 347.693,203.003 C348.557,203.003 349.290,203.291 349.894,203.866 C350.497,204.441 350.798,205.162 350.798,206.029 C350.798,206.642 350.634,207.621 350.307,208.966 L344.856,231.091 ZM305.101,236.427 L289.084,236.427 C287.639,236.427 286.600,236.106 285.967,235.463 C285.334,234.820 285.018,233.782 285.018,232.347 L285.018,207.038 C285.018,205.693 285.319,204.684 285.922,204.011 C286.526,203.339 287.319,203.003 288.302,203.003 C289.299,203.003 290.107,203.335 290.726,204.000 C291.343,204.665 291.653,205.678 291.653,207.038 L291.653,230.957 L305.101,230.957 C306.174,230.957 306.997,231.219 307.570,231.742 C308.143,232.265 308.430,232.922 308.430,233.714 C308.430,234.521 308.147,235.175 307.581,235.676 C307.015,236.177 306.188,236.427 305.101,236.427 ZM274.663,236.987 C274.141,236.987 273.695,236.894 273.323,236.707 C272.950,236.520 272.637,236.266 272.384,235.945 C272.131,235.624 271.859,235.130 271.569,234.465 C271.278,233.800 271.029,233.214 270.820,232.706 L269.257,228.581 L255.942,228.581 L254.378,232.795 C253.767,234.439 253.246,235.549 252.814,236.124 C252.382,236.699 251.675,236.987 250.692,236.987 C249.858,236.987 249.120,236.681 248.480,236.068 C247.840,235.455 247.519,234.761 247.519,233.983 C247.519,233.535 247.594,233.072 247.743,232.593 C247.892,232.115 248.137,231.450 248.480,230.598 L256.858,209.257 C257.096,208.644 257.383,207.909 257.718,207.049 C258.053,206.190 258.410,205.476 258.790,204.908 C259.170,204.340 259.669,203.881 260.287,203.529 C260.905,203.178 261.668,203.003 262.577,203.003 C263.500,203.003 264.271,203.178 264.889,203.529 C265.507,203.881 266.006,204.333 266.386,204.886 C266.766,205.439 267.086,206.033 267.346,206.668 C267.607,207.303 267.939,208.151 268.341,209.212 L276.897,230.419 C277.567,232.033 277.902,233.206 277.902,233.938 C277.902,234.701 277.586,235.399 276.953,236.034 C276.320,236.670 275.557,236.987 274.663,236.987 ZM262.532,210.019 L257.684,223.582 L267.469,223.582 L262.532,210.019 ZM236.718,236.987 C235.765,236.987 234.979,236.647 234.361,235.967 C233.743,235.287 233.434,234.275 233.434,232.930 L233.434,207.038 C233.434,205.693 233.739,204.684 234.350,204.011 C234.961,203.339 235.750,203.003 236.718,203.003 C237.716,203.003 238.524,203.335 239.142,204.000 C239.760,204.665 240.069,205.678 240.069,207.038 L240.069,232.930 C240.069,234.290 239.760,235.306 239.142,235.978 C238.524,236.651 237.716,236.987 236.718,236.987 ZM206.458,230.441 C207.769,231.279 209.303,231.697 211.060,231.697 C212.967,231.697 214.579,231.222 215.897,230.273 C217.215,229.324 218.209,227.931 218.879,226.092 C219.162,225.226 219.512,224.520 219.929,223.974 C220.346,223.429 221.016,223.156 221.940,223.156 C222.729,223.156 223.407,223.432 223.973,223.985 C224.539,224.538 224.822,225.226 224.822,226.048 C224.822,227.094 224.565,228.226 224.051,229.444 C223.537,230.662 222.729,231.858 221.627,233.031 C220.525,234.204 219.118,235.157 217.405,235.889 C215.692,236.621 213.696,236.987 211.418,236.987 C209.690,236.987 208.119,236.823 206.704,236.494 C205.289,236.165 204.004,235.653 202.850,234.958 C201.696,234.264 200.635,233.348 199.667,232.212 C198.803,231.181 198.066,230.027 197.455,228.749 C196.844,227.471 196.386,226.107 196.081,224.658 C195.776,223.208 195.623,221.669 195.623,220.040 C195.623,217.395 196.006,215.026 196.774,212.933 C197.541,210.841 198.639,209.052 200.069,207.565 C201.499,206.078 203.174,204.946 205.095,204.168 C207.017,203.391 209.064,203.003 211.239,203.003 C213.890,203.003 216.251,203.533 218.321,204.594 C220.391,205.656 221.977,206.967 223.079,208.528 C224.181,210.090 224.733,211.566 224.733,212.956 C224.733,213.718 224.465,214.391 223.928,214.973 C223.392,215.556 222.744,215.848 221.985,215.848 C221.136,215.848 220.499,215.646 220.075,215.242 C219.650,214.839 219.177,214.144 218.656,213.158 C217.792,211.529 216.776,210.311 215.607,209.504 C214.437,208.697 212.996,208.293 211.284,208.293 C208.558,208.293 206.387,209.332 204.772,211.409 C203.155,213.487 202.348,216.438 202.348,220.264 C202.348,222.820 202.705,224.946 203.420,226.642 C204.135,228.338 205.147,229.605 206.458,230.441 ZM184.755,232.280 C183.384,233.804 181.701,234.970 179.706,235.777 C177.710,236.584 175.424,236.987 172.847,236.987 C170.286,236.987 167.992,236.573 165.967,235.743 C163.941,234.914 162.250,233.744 160.895,232.235 C159.540,230.725 158.516,228.910 157.824,226.787 C157.131,224.665 156.785,222.371 156.785,219.905 C156.785,217.380 157.146,215.063 157.868,212.956 C158.590,210.849 159.637,209.055 161.007,207.576 C162.377,206.096 164.045,204.964 166.011,204.180 C167.977,203.395 170.211,203.003 172.713,203.003 C176.109,203.003 179.024,203.694 181.460,205.076 C183.895,206.459 185.738,208.424 186.989,210.972 C188.240,213.520 188.865,216.513 188.865,219.950 C188.865,222.491 188.523,224.800 187.838,226.877 C187.152,228.954 186.125,230.755 184.755,232.280 ZM180.979,213.651 C180.205,211.888 179.099,210.554 177.662,209.649 C176.224,208.745 174.575,208.293 172.713,208.293 C171.388,208.293 170.163,208.544 169.038,209.044 C167.914,209.545 166.946,210.274 166.134,211.230 C165.322,212.186 164.682,213.408 164.213,214.895 C163.744,216.382 163.509,218.052 163.509,219.905 C163.509,221.774 163.744,223.462 164.213,224.972 C164.682,226.481 165.345,227.733 166.201,228.726 C167.057,229.721 168.040,230.464 169.150,230.957 C170.259,231.450 171.477,231.697 172.803,231.697 C174.501,231.697 176.061,231.271 177.483,230.419 C178.905,229.567 180.037,228.252 180.879,226.474 C181.720,224.695 182.141,222.506 182.141,219.905 C182.141,217.499 181.753,215.414 180.979,213.651 ZM144.285,235.642 C142.319,236.539 139.988,236.987 137.293,236.987 C134.061,236.987 131.395,236.375 129.295,235.149 C127.806,234.267 126.595,233.090 125.665,231.618 C124.734,230.146 124.269,228.715 124.269,227.325 C124.269,226.518 124.548,225.827 125.106,225.252 C125.665,224.677 126.376,224.389 127.240,224.389 C127.940,224.389 128.532,224.613 129.016,225.061 C129.500,225.510 129.913,226.175 130.256,227.056 C130.672,228.103 131.123,228.977 131.607,229.679 C132.091,230.382 132.772,230.961 133.651,231.417 C134.530,231.873 135.684,232.100 137.114,232.100 C139.080,232.100 140.677,231.641 141.906,230.722 C143.135,229.802 143.749,228.656 143.749,227.281 C143.749,226.190 143.418,225.304 142.755,224.624 C142.092,223.944 141.236,223.425 140.186,223.066 C139.136,222.707 137.732,222.326 135.975,221.923 C133.621,221.370 131.652,220.723 130.066,219.984 C128.480,219.244 127.221,218.235 126.290,216.957 C125.359,215.680 124.894,214.092 124.894,212.194 C124.894,210.386 125.386,208.779 126.368,207.374 C127.351,205.969 128.774,204.890 130.635,204.135 C132.497,203.380 134.686,203.003 137.204,203.003 C139.214,203.003 140.953,203.253 142.420,203.754 C143.887,204.255 145.104,204.919 146.073,205.749 C147.041,206.578 147.748,207.449 148.195,208.360 C148.642,209.272 148.865,210.161 148.865,211.028 C148.865,211.820 148.586,212.534 148.027,213.169 C147.469,213.804 146.773,214.122 145.939,214.122 C145.179,214.122 144.602,213.931 144.207,213.550 C143.812,213.169 143.384,212.545 142.923,211.678 C142.327,210.438 141.612,209.470 140.778,208.775 C139.944,208.080 138.603,207.733 136.757,207.733 C135.044,207.733 133.663,208.110 132.613,208.865 C131.563,209.620 131.038,210.527 131.038,211.588 C131.038,212.246 131.216,212.814 131.574,213.292 C131.931,213.771 132.423,214.182 133.048,214.525 C133.674,214.869 134.307,215.138 134.947,215.332 C135.587,215.527 136.645,215.811 138.119,216.184 C139.966,216.618 141.638,217.096 143.135,217.619 C144.632,218.142 145.905,218.777 146.955,219.524 C148.005,220.272 148.824,221.217 149.412,222.360 C150.001,223.503 150.295,224.904 150.295,226.563 C150.295,228.551 149.785,230.337 148.765,231.921 C147.744,233.505 146.251,234.746 144.285,235.642 ZM113.914,236.987 C112.990,236.987 112.238,236.789 111.658,236.393 C111.077,235.997 110.585,235.471 110.183,234.813 C109.781,234.155 109.423,233.557 109.111,233.019 L101.269,220.914 L95.841,226.137 L95.841,232.930 C95.841,234.305 95.528,235.325 94.902,235.990 C94.277,236.654 93.473,236.987 92.490,236.987 C91.923,236.987 91.380,236.838 90.859,236.539 C90.337,236.240 89.935,235.837 89.652,235.328 C89.444,234.910 89.317,234.424 89.273,233.871 C89.228,233.319 89.206,232.519 89.206,231.473 L89.206,207.038 C89.206,205.693 89.499,204.684 90.088,204.011 C90.676,203.339 91.477,203.003 92.490,203.003 C93.487,203.003 94.295,203.335 94.913,204.000 C95.531,204.665 95.841,205.678 95.841,207.038 L95.841,218.560 L108.865,204.931 C109.491,204.273 110.023,203.787 110.462,203.473 C110.901,203.160 111.486,203.003 112.216,203.003 C113.169,203.003 113.940,203.283 114.528,203.843 C115.116,204.404 115.411,205.087 115.411,205.894 C115.411,206.866 114.912,207.830 113.914,208.786 L105.849,216.453 L115.143,229.814 C115.798,230.741 116.289,231.551 116.617,232.246 C116.944,232.941 117.109,233.617 117.109,234.275 C117.109,235.007 116.822,235.642 116.248,236.180 C115.675,236.718 114.897,236.987 113.914,236.987 ZM62.453,230.441 C63.764,231.279 65.298,231.697 67.055,231.697 C68.961,231.697 70.574,231.222 71.892,230.273 C73.210,229.324 74.204,227.931 74.874,226.092 C75.157,225.226 75.507,224.520 75.924,223.974 C76.341,223.429 77.011,223.156 77.935,223.156 C78.724,223.156 79.402,223.432 79.968,223.985 C80.534,224.538 80.817,225.226 80.817,226.048 C80.817,227.094 80.560,228.226 80.046,229.444 C79.532,230.662 78.724,231.858 77.622,233.031 C76.520,234.204 75.112,235.157 73.400,235.889 C71.687,236.621 69.691,236.987 67.413,236.987 C65.685,236.987 64.114,236.823 62.699,236.494 C61.284,236.165 59.999,235.653 58.845,234.958 C57.691,234.264 56.630,233.348 55.662,232.212 C54.798,231.181 54.061,230.027 53.450,228.749 C52.839,227.471 52.381,226.107 52.076,224.658 C51.771,223.208 51.618,221.669 51.618,220.040 C51.618,217.395 52.001,215.026 52.769,212.933 C53.536,210.841 54.634,209.052 56.064,207.565 C57.494,206.078 59.169,204.946 61.090,204.168 C63.012,203.391 65.059,203.003 67.234,203.003 C69.885,203.003 72.246,203.533 74.316,204.594 C76.386,205.656 77.972,206.967 79.074,208.528 C80.176,210.090 80.727,211.566 80.727,212.956 C80.727,213.718 80.459,214.391 79.923,214.973 C79.387,215.556 78.739,215.848 77.980,215.848 C77.131,215.848 76.494,215.646 76.070,215.242 C75.645,214.839 75.172,214.144 74.651,213.158 C73.787,211.529 72.770,210.311 71.601,209.504 C70.432,208.697 68.991,208.293 67.279,208.293 C64.553,208.293 62.382,209.332 60.766,211.409 C59.150,213.487 58.343,216.438 58.343,220.264 C58.343,222.820 58.700,224.946 59.415,226.642 C60.130,228.338 61.142,229.605 62.453,230.441 ZM39.767,236.987 C38.813,236.987 38.028,236.647 37.410,235.967 C36.792,235.287 36.483,234.275 36.483,232.930 L36.483,207.038 C36.483,205.693 36.788,204.684 37.399,204.011 C38.009,203.339 38.798,203.003 39.767,203.003 C40.764,203.003 41.572,203.335 42.191,204.000 C42.808,204.665 43.118,205.678 43.118,207.038 L43.118,232.930 C43.118,234.290 42.808,235.306 42.191,235.978 C41.572,236.651 40.764,236.987 39.767,236.987 ZM24.721,236.987 C23.797,236.987 23.045,236.789 22.464,236.393 C21.883,235.997 21.392,235.471 20.990,234.813 C20.588,234.155 20.230,233.557 19.917,233.019 L12.076,220.914 L6.647,226.137 L6.647,232.930 C6.647,234.305 6.335,235.325 5.709,235.990 C5.083,236.654 4.279,236.987 3.296,236.987 C2.730,236.987 2.187,236.838 1.665,236.539 C1.144,236.240 0.742,235.837 0.459,235.328 C0.250,234.910 0.124,234.424 0.079,233.871 C0.035,233.319 0.012,232.519 0.012,231.473 L0.012,207.038 C0.012,205.693 0.306,204.684 0.895,204.011 C1.483,203.339 2.283,203.003 3.296,203.003 C4.294,203.003 5.102,203.335 5.720,204.000 C6.338,204.665 6.647,205.678 6.647,207.038 L6.647,218.560 L19.672,204.931 C20.297,204.273 20.830,203.787 21.269,203.473 C21.708,203.160 22.293,203.003 23.023,203.003 C23.976,203.003 24.746,203.283 25.335,203.843 C25.923,204.404 26.217,205.087 26.217,205.894 C26.217,206.866 25.718,207.830 24.721,208.786 L16.656,216.453 L25.949,229.814 C26.604,230.741 27.096,231.551 27.424,232.246 C27.751,232.941 27.915,233.617 27.915,234.275 C27.915,235.007 27.628,235.642 27.055,236.180 C26.482,236.718 25.704,236.987 24.721,236.987 Z"/>
        <path fill-rule="evenodd" opacity="0.2" fill="rgb(24, 35, 45)"
              d="M270.000,160.000 C225.817,160.000 190.000,124.183 190.000,80.000 C190.000,35.817 225.817,0.000 270.000,0.000 C314.183,0.000 350.000,35.817 350.000,80.000 C350.000,124.183 314.183,160.000 270.000,160.000 ZM270.000,32.000 C243.490,32.000 222.000,53.490 222.000,80.000 C222.000,106.510 243.490,128.000 270.000,128.000 C296.510,128.000 318.000,106.510 318.000,80.000 C318.000,53.490 296.510,32.000 270.000,32.000 Z"/>
        <path fill-rule="evenodd" fill="rgb(24, 35, 45)"
              d="M323.400,41.268 C317.720,48.037 307.628,48.920 300.858,43.240 C300.456,42.902 300.077,42.546 299.716,42.179 L299.646,42.264 C291.482,35.842 281.193,32.000 270.000,32.000 C243.490,32.000 222.000,53.490 222.000,80.000 C222.000,106.510 243.490,128.000 270.000,128.000 C281.715,128.000 292.444,123.799 300.777,116.827 L300.787,116.839 C300.808,116.820 300.827,116.799 300.849,116.781 C307.618,111.101 317.710,111.984 323.390,118.753 C329.070,125.522 328.187,135.614 321.418,141.294 C321.166,141.506 320.900,141.690 320.639,141.883 L320.661,141.910 C306.864,153.213 289.226,160.000 270.000,160.000 C225.817,160.000 190.000,124.183 190.000,80.000 C190.000,35.817 225.817,0.000 270.000,0.000 C288.961,0.000 306.369,6.610 320.079,17.633 L320.036,17.686 C320.512,18.005 320.978,18.349 321.428,18.726 C328.197,24.406 329.080,34.498 323.400,41.268 Z"/>
        <path fill-rule="evenodd" fill="rgb(24, 35, 45)"
              d="M143.000,0.000 C151.837,0.000 159.000,7.163 159.000,16.000 L159.000,144.000 C159.000,152.837 151.837,160.000 143.000,160.000 C134.163,160.000 127.000,152.837 127.000,144.000 L127.000,16.000 C127.000,7.163 134.163,0.000 143.000,0.000 Z"/>
        <path fill-rule="evenodd" fill="rgb(24, 35, 45)"
              d="M92.340,27.967 L39.307,81.000 L92.340,134.033 C98.588,140.281 98.588,150.412 92.340,156.660 C86.091,162.909 75.961,162.909 69.712,156.660 L5.365,92.314 C-0.883,86.065 -0.883,75.935 5.365,69.686 L69.712,5.340 C75.961,-0.909 86.091,-0.909 92.340,5.340 C98.588,11.588 98.588,21.719 92.340,27.967 Z"/>
        <path fill-rule="evenodd" fill="rgb(24, 35, 45)"
              d="M367.660,27.967 L420.693,81.000 L367.660,134.033 C361.412,140.281 361.412,150.412 367.660,156.660 C373.909,162.909 384.039,162.909 390.288,156.660 L454.635,92.314 C460.883,86.065 460.883,75.935 454.635,69.686 L390.288,5.340 C384.039,-0.909 373.909,-0.909 367.660,5.340 C361.412,11.588 361.412,21.719 367.660,27.967 Z"/>
    </g>
</svg>